# xmcd
# Track frame offsets:
# 150
# 1452
# 25257
# 59452
# 85095
# 99636
# 123340
# 138937
# 165691
# 191182
# 219415
#
# Disc length: 3267 seconds
# Revision: 0
# Processed by: cddbd v1.5.2PL0 Copyright (c) Steve Scherf et al.
# Submitted via: VisiTrax 2.10.2.252 - For more info visit www.synapsa.com
#
DISCID=930cc10b
DTITLE=Shacky Vick - Little woman you´re so sweet
DYEAR=1900
DGENRE=Blues
TTITLE0=Introduction by Erskin
TTITLE1=Good morning little school girl
TTITLE2=Blues with a feeling
TTITLE3=Backbiter
TTITLE4=Come on in my kitchen
TTITLE5=Crosswroads blues
TTITLE6=Terraplane Blues
TTITLE7=Little woman you´re so sweet
TTITLE8=I´m going upstairs
TTITLE9=Death Vally blues
TTITLE10=Movi´to Chicago
EXTD=
EXTT0=
EXTT1=
EXTT2=
EXTT3=
EXTT4=
EXTT5=
EXTT6=
EXTT7=
EXTT8=
EXTT9=
EXTT10=
PLAYORDER=
